<svg viewBox="0 0 64 64" xmlns="http://www.w3.org/2000/svg">
  <g transform="translate(32 32)" fill="#f5c518" stroke="#1a1410" stroke-width="1.5">
    <polygon points="-3,-30 3,-30 0,-22"/>
    <polygon points="-3,-30 3,-30 0,-22" transform="rotate(45)"/>
    <polygon points="-3,-30 3,-30 0,-22" transform="rotate(90)"/>
    <polygon points="-3,-30 3,-30 0,-22" transform="rotate(135)"/>
    <polygon points="-3,-30 3,-30 0,-22" transform="rotate(180)"/>
    <polygon points="-3,-30 3,-30 0,-22" transform="rotate(225)"/>
    <polygon points="-3,-30 3,-30 0,-22" transform="rotate(270)"/>
    <polygon points="-3,-30 3,-30 0,-22" transform="rotate(315)"/>
  </g>
  <circle cx="32" cy="32" r="20" fill="#f5c518" stroke="#1a1410" stroke-width="2.5"/>
  <text x="32" y="42" text-anchor="middle" fill="#c8261c" font-family="Impact, 'Bowlby One', sans-serif" font-size="28" font-weight="900">S</text>
</svg>
